<mxfile host="app.diagrams.net" modified="2021-12-08T09:05:35.138Z" agent="5.0 (Windows NT 10.0; Win64; x64) AppleWebKit/537.36 (KHTML, like Gecko) Chrome/96.0.4664.45 Safari/537.36" etag="68Or3_Z_qqhsvHUUqT-V" version="15.5.9" type="github">
  <diagram id="m4PIT23CN2JhynkwfLqP" name="Page-1">
    <mxGraphModel dx="813" dy="499" grid="1" gridSize="10" guides="1" tooltips="1" connect="1" arrows="1" fold="1" page="1" pageScale="1" pageWidth="827" pageHeight="1169" math="0" shadow="0">
      <root>
        <mxCell id="0" />
        <mxCell id="1" parent="0" />
        <mxCell id="CiH4N1L8d81IdJiYc_po-3" value="" style="edgeStyle=orthogonalEdgeStyle;rounded=0;orthogonalLoop=1;jettySize=auto;html=1;" edge="1" parent="1" source="CiH4N1L8d81IdJiYc_po-1" target="CiH4N1L8d81IdJiYc_po-2">
          <mxGeometry relative="1" as="geometry" />
        </mxCell>
        <mxCell id="CiH4N1L8d81IdJiYc_po-17" style="edgeStyle=orthogonalEdgeStyle;rounded=0;orthogonalLoop=1;jettySize=auto;html=1;exitX=1;exitY=0.5;exitDx=0;exitDy=0;entryX=0.5;entryY=0;entryDx=0;entryDy=0;" edge="1" parent="1" source="CiH4N1L8d81IdJiYc_po-1" target="CiH4N1L8d81IdJiYc_po-14">
          <mxGeometry relative="1" as="geometry">
            <mxPoint x="600" y="540" as="targetPoint" />
          </mxGeometry>
        </mxCell>
        <mxCell id="CiH4N1L8d81IdJiYc_po-1" value="[4 2 K A]" style="rounded=0;whiteSpace=wrap;html=1;" vertex="1" parent="1">
          <mxGeometry x="150" y="210" width="80" height="30" as="geometry" />
        </mxCell>
        <mxCell id="CiH4N1L8d81IdJiYc_po-6" value="" style="edgeStyle=orthogonalEdgeStyle;rounded=0;orthogonalLoop=1;jettySize=auto;html=1;" edge="1" parent="1" source="CiH4N1L8d81IdJiYc_po-2" target="CiH4N1L8d81IdJiYc_po-5">
          <mxGeometry relative="1" as="geometry" />
        </mxCell>
        <mxCell id="CiH4N1L8d81IdJiYc_po-12" style="edgeStyle=orthogonalEdgeStyle;rounded=0;orthogonalLoop=1;jettySize=auto;html=1;" edge="1" parent="1" source="CiH4N1L8d81IdJiYc_po-2" target="CiH4N1L8d81IdJiYc_po-11">
          <mxGeometry relative="1" as="geometry" />
        </mxCell>
        <mxCell id="CiH4N1L8d81IdJiYc_po-2" value="[4 2 13 1]" style="rounded=0;whiteSpace=wrap;html=1;" vertex="1" parent="1">
          <mxGeometry x="150" y="290" width="80" height="30" as="geometry" />
        </mxCell>
        <mxCell id="CiH4N1L8d81IdJiYc_po-4" value="转换数值" style="text;html=1;strokeColor=none;fillColor=none;align=center;verticalAlign=middle;whiteSpace=wrap;rounded=0;" vertex="1" parent="1">
          <mxGeometry x="200" y="250" width="60" height="30" as="geometry" />
        </mxCell>
        <mxCell id="CiH4N1L8d81IdJiYc_po-9" value="" style="edgeStyle=orthogonalEdgeStyle;rounded=0;orthogonalLoop=1;jettySize=auto;html=1;" edge="1" parent="1" source="CiH4N1L8d81IdJiYc_po-5" target="CiH4N1L8d81IdJiYc_po-8">
          <mxGeometry relative="1" as="geometry" />
        </mxCell>
        <mxCell id="CiH4N1L8d81IdJiYc_po-5" value="下标 [ 2 1 0 3 ]" style="rounded=0;whiteSpace=wrap;html=1;" vertex="1" parent="1">
          <mxGeometry x="140" y="370" width="100" height="40" as="geometry" />
        </mxCell>
        <mxCell id="CiH4N1L8d81IdJiYc_po-7" value="递归枚举到数值下标" style="text;html=1;strokeColor=none;fillColor=none;align=center;verticalAlign=middle;whiteSpace=wrap;rounded=0;" vertex="1" parent="1">
          <mxGeometry x="200" y="330" width="120" height="30" as="geometry" />
        </mxCell>
        <mxCell id="CiH4N1L8d81IdJiYc_po-13" value="" style="edgeStyle=orthogonalEdgeStyle;rounded=0;orthogonalLoop=1;jettySize=auto;html=1;" edge="1" parent="1" source="CiH4N1L8d81IdJiYc_po-8" target="CiH4N1L8d81IdJiYc_po-11">
          <mxGeometry relative="1" as="geometry" />
        </mxCell>
        <mxCell id="CiH4N1L8d81IdJiYc_po-15" style="rounded=0;orthogonalLoop=1;jettySize=auto;html=1;entryX=0;entryY=0.5;entryDx=0;entryDy=0;exitX=0.5;exitY=1;exitDx=0;exitDy=0;edgeStyle=orthogonalEdgeStyle;" edge="1" parent="1" source="CiH4N1L8d81IdJiYc_po-8" target="CiH4N1L8d81IdJiYc_po-14">
          <mxGeometry relative="1" as="geometry">
            <mxPoint x="190" y="570" as="targetPoint" />
          </mxGeometry>
        </mxCell>
        <mxCell id="CiH4N1L8d81IdJiYc_po-8" value="下标 [ 2 1 0 3 ] 运算符 [ / * * ]" style="rounded=0;whiteSpace=wrap;html=1;" vertex="1" parent="1">
          <mxGeometry x="105" y="460" width="170" height="40" as="geometry" />
        </mxCell>
        <mxCell id="CiH4N1L8d81IdJiYc_po-10" value="递归枚举到运算符" style="text;html=1;strokeColor=none;fillColor=none;align=center;verticalAlign=middle;whiteSpace=wrap;rounded=0;" vertex="1" parent="1">
          <mxGeometry x="200" y="420" width="120" height="30" as="geometry" />
        </mxCell>
        <mxCell id="CiH4N1L8d81IdJiYc_po-16" style="edgeStyle=none;rounded=0;orthogonalLoop=1;jettySize=auto;html=1;entryX=0.5;entryY=0;entryDx=0;entryDy=0;exitX=1;exitY=1;exitDx=0;exitDy=0;" edge="1" parent="1" source="CiH4N1L8d81IdJiYc_po-11" target="CiH4N1L8d81IdJiYc_po-14">
          <mxGeometry relative="1" as="geometry" />
        </mxCell>
        <mxCell id="CiH4N1L8d81IdJiYc_po-11" value="13/2*4*1 = 24 满足" style="rounded=0;whiteSpace=wrap;html=1;" vertex="1" parent="1">
          <mxGeometry x="330" y="450" width="120" height="60" as="geometry" />
        </mxCell>
        <mxCell id="CiH4N1L8d81IdJiYc_po-14" value="根据 下标 初始读入 运算符输出 K/2*4*A" style="rounded=0;whiteSpace=wrap;html=1;" vertex="1" parent="1">
          <mxGeometry x="380" y="540" width="220" height="60" as="geometry" />
        </mxCell>
      </root>
    </mxGraphModel>
  </diagram>
</mxfile>
